<?xml version="1.0" encoding="UTF-8"?>
<svg width="15px" height="11px" viewBox="0 0 15 11" version="1.1" xmlns="http://www.w3.org/2000/svg" xmlns:xlink="http://www.w3.org/1999/xlink">
    <title>Group 5</title>
    <defs>
        <filter id="filter-1">
            <feColorMatrix in="SourceGraphic" type="matrix" values="0 0 0 0 0.635294 0 0 0 0 0.537255 0 0 0 0 0.356863 0 0 0 1.000000 0"></feColorMatrix>
        </filter>
    </defs>
    <g id="Page-1" stroke="none" stroke-width="1" fill="none" fill-rule="evenodd">
        <g id="와인상세-기본_최종!-(한줄평-추가된-버전)" transform="translate(-624.000000, -1032.000000)">
            <g filter="url(#filter-1)" id="Group-5">
                <g transform="translate(624.000000, 1032.000000)">
                    <path d="M13.5208333,10.9820677 L1.1171875,10.9820677 C0.529976562,10.8400703 0.152567708,10.4832865 0,9.89636198 C0,7.62016406 0,5.34396615 0,3.06776823 C0.0288463542,3.08423958 0.05878125,3.09904948 0.0863385417,3.11741146 C2.05920573,4.42916146 4.0318724,5.74119792 6.00459635,7.05317708 C6.89932031,7.64823698 7.7670599,7.64883854 8.66198438,7.05392188 C10.595349,5.76864062 12.5283984,4.48290104 14.4617917,3.19759115 C14.5290807,3.15284635 14.5983177,3.11099479 14.6666667,3.06776823 L14.6666667,9.89636198 C14.5065365,10.4911354 14.1298438,10.8585469 13.5208333,10.9820677" id="Fill-1" fill="#231916"></path>
                    <path d="M0,1.63921198 C0,1.45825625 0,1.27730052 0,1.09634479 C0.0160130208,1.04661563 0.0317682292,0.996771875 0.0480390625,0.9471 C0.232861979,0.383092188 0.750148438,0.00138645833 1.34371875,0.00121458333 C5.33686198,1.14229962e-05 9.33003385,0.000698958333 13.3231771,1.14229962e-05 C13.4436615,1.14229962e-05 13.5606224,0.0173708333 13.6756068,0.0504567708 C14.2118854,0.204743229 14.5239245,0.570865625 14.6666667,1.09634479 L14.6666667,1.61065208 C14.5776927,1.99639688 14.3595833,2.28474583 14.0285234,2.50402969 C12.0768255,3.79687344 10.1288229,5.09524583 8.17890104,6.39078229 C7.59527083,6.77856094 7.06901823,6.7767276 6.48710677,6.38980833 C4.56545833,5.111975 2.64615885,3.83058958 0.719927083,2.5596599 C0.369760417,2.3286026 0.109197917,2.04793073 0,1.63921198" id="Fill-3" fill="#231916"></path>
                </g>
            </g>
        </g>
    </g>
</svg>